<svg xmlns="http://www.w3.org/2000/svg" viewBox="0 0 800 450" width="800" height="450">
<defs>
  <linearGradient id="cg" x1="0" y1="0" x2="1" y2="1"><stop offset="0%" stop-color="#241436"/><stop offset="100%" stop-color="#5a2350"/></linearGradient>
  <radialGradient id="cg2" cx="30%" cy="20%" r="80%"><stop offset="0%" stop-color="#ff9ec4" stop-opacity="0.35"/><stop offset="100%" stop-color="#ff9ec4" stop-opacity="0"/></radialGradient>
</defs>
<rect width="800" height="450" fill="url(#cg)"/>
<rect width="800" height="450" fill="url(#cg2)"/>
<line x1="0" y1="0" x2="0" y2="450" stroke="#ff9ec4" stroke-width="1" opacity="0.06"/><line x1="40" y1="0" x2="40" y2="450" stroke="#ff9ec4" stroke-width="1" opacity="0.06"/><line x1="80" y1="0" x2="80" y2="450" stroke="#ff9ec4" stroke-width="1" opacity="0.06"/><line x1="120" y1="0" x2="120" y2="450" stroke="#ff9ec4" stroke-width="1" opacity="0.06"/><line x1="160" y1="0" x2="160" y2="450" stroke="#ff9ec4" stroke-width="1" opacity="0.06"/><line x1="200" y1="0" x2="200" y2="450" stroke="#ff9ec4" stroke-width="1" opacity="0.06"/><line x1="240" y1="0" x2="240" y2="450" stroke="#ff9ec4" stroke-width="1" opacity="0.06"/><line x1="280" y1="0" x2="280" y2="450" stroke="#ff9ec4" stroke-width="1" opacity="0.06"/><line x1="320" y1="0" x2="320" y2="450" stroke="#ff9ec4" stroke-width="1" opacity="0.06"/><line x1="360" y1="0" x2="360" y2="450" stroke="#ff9ec4" stroke-width="1" opacity="0.06"/><line x1="400" y1="0" x2="400" y2="450" stroke="#ff9ec4" stroke-width="1" opacity="0.06"/><line x1="440" y1="0" x2="440" y2="450" stroke="#ff9ec4" stroke-width="1" opacity="0.06"/><line x1="480" y1="0" x2="480" y2="450" stroke="#ff9ec4" stroke-width="1" opacity="0.06"/><line x1="520" y1="0" x2="520" y2="450" stroke="#ff9ec4" stroke-width="1" opacity="0.06"/><line x1="560" y1="0" x2="560" y2="450" stroke="#ff9ec4" stroke-width="1" opacity="0.06"/><line x1="600" y1="0" x2="600" y2="450" stroke="#ff9ec4" stroke-width="1" opacity="0.06"/><line x1="640" y1="0" x2="640" y2="450" stroke="#ff9ec4" stroke-width="1" opacity="0.06"/><line x1="680" y1="0" x2="680" y2="450" stroke="#ff9ec4" stroke-width="1" opacity="0.06"/><line x1="720" y1="0" x2="720" y2="450" stroke="#ff9ec4" stroke-width="1" opacity="0.06"/><line x1="760" y1="0" x2="760" y2="450" stroke="#ff9ec4" stroke-width="1" opacity="0.06"/><line x1="800" y1="0" x2="800" y2="450" stroke="#ff9ec4" stroke-width="1" opacity="0.06"/><line x1="0" y1="0" x2="800" y2="0" stroke="#ff9ec4" stroke-width="1" opacity="0.06"/><line x1="0" y1="40" x2="800" y2="40" stroke="#ff9ec4" stroke-width="1" opacity="0.06"/><line x1="0" y1="80" x2="800" y2="80" stroke="#ff9ec4" stroke-width="1" opacity="0.06"/><line x1="0" y1="120" x2="800" y2="120" stroke="#ff9ec4" stroke-width="1" opacity="0.06"/><line x1="0" y1="160" x2="800" y2="160" stroke="#ff9ec4" stroke-width="1" opacity="0.06"/><line x1="0" y1="200" x2="800" y2="200" stroke="#ff9ec4" stroke-width="1" opacity="0.06"/><line x1="0" y1="240" x2="800" y2="240" stroke="#ff9ec4" stroke-width="1" opacity="0.06"/><line x1="0" y1="280" x2="800" y2="280" stroke="#ff9ec4" stroke-width="1" opacity="0.06"/><line x1="0" y1="320" x2="800" y2="320" stroke="#ff9ec4" stroke-width="1" opacity="0.06"/><line x1="0" y1="360" x2="800" y2="360" stroke="#ff9ec4" stroke-width="1" opacity="0.06"/><line x1="0" y1="400" x2="800" y2="400" stroke="#ff9ec4" stroke-width="1" opacity="0.06"/><line x1="0" y1="440" x2="800" y2="440" stroke="#ff9ec4" stroke-width="1" opacity="0.06"/><g transform="translate(49.6,439.6) rotate(252)" opacity="0.15" fill="#ff9ec4">
        <ellipse rx="5.8" ry="26.5"/>
        <ellipse rx="5.8" ry="26.5" transform="rotate(60)"/>
        <ellipse rx="5.8" ry="26.5" transform="rotate(120)"/>
      </g><g transform="translate(373.0,108.0) rotate(199)" opacity="0.18" fill="#ff9ec4">
        <ellipse rx="9.8" ry="44.7"/>
        <ellipse rx="9.8" ry="44.7" transform="rotate(60)"/>
        <ellipse rx="9.8" ry="44.7" transform="rotate(120)"/>
      </g><g transform="translate(124.8,343.8) rotate(187)" opacity="0.11" fill="#ff9ec4">
        <ellipse rx="8.3" ry="37.9"/>
        <ellipse rx="8.3" ry="37.9" transform="rotate(60)"/>
        <ellipse rx="8.3" ry="37.9" transform="rotate(120)"/>
      </g><g transform="translate(234.6,240.6) rotate(107)" opacity="0.22" fill="#ff9ec4">
        <ellipse rx="9.4" ry="42.9"/>
        <ellipse rx="9.4" ry="42.9" transform="rotate(60)"/>
        <ellipse rx="9.4" ry="42.9" transform="rotate(120)"/>
      </g><g transform="translate(702.2,85.9) rotate(52)" opacity="0.10" fill="#ff9ec4">
        <ellipse rx="8.2" ry="37.4"/>
        <ellipse rx="8.2" ry="37.4" transform="rotate(60)"/>
        <ellipse rx="8.2" ry="37.4" transform="rotate(120)"/>
      </g><g transform="translate(438.3,342.8) rotate(27)" opacity="0.21" fill="#ff9ec4">
        <ellipse rx="8.7" ry="39.4"/>
        <ellipse rx="8.7" ry="39.4" transform="rotate(60)"/>
        <ellipse rx="8.7" ry="39.4" transform="rotate(120)"/>
      </g><g transform="translate(497.3,306.0) rotate(348)" opacity="0.17" fill="#ff9ec4">
        <ellipse rx="11.3" ry="51.5"/>
        <ellipse rx="11.3" ry="51.5" transform="rotate(60)"/>
        <ellipse rx="11.3" ry="51.5" transform="rotate(120)"/>
      </g><g transform="translate(662.1,18.0) rotate(63)" opacity="0.13" fill="#ff9ec4">
        <ellipse rx="15.0" ry="68.4"/>
        <ellipse rx="15.0" ry="68.4" transform="rotate(60)"/>
        <ellipse rx="15.0" ry="68.4" transform="rotate(120)"/>
      </g><g transform="translate(16.1,39.6) rotate(276)" opacity="0.13" fill="#ff9ec4">
        <ellipse rx="10.0" ry="45.6"/>
        <ellipse rx="10.0" ry="45.6" transform="rotate(60)"/>
        <ellipse rx="10.0" ry="45.6" transform="rotate(120)"/>
      </g><g transform="translate(374.9,425.8) rotate(253)" opacity="0.18" fill="#ff9ec4">
        <ellipse rx="10.0" ry="45.6"/>
        <ellipse rx="10.0" ry="45.6" transform="rotate(60)"/>
        <ellipse rx="10.0" ry="45.6" transform="rotate(120)"/>
      </g><g transform="translate(285.1,62.5) rotate(48)" opacity="0.21" fill="#ff9ec4">
        <ellipse rx="9.1" ry="41.2"/>
        <ellipse rx="9.1" ry="41.2" transform="rotate(60)"/>
        <ellipse rx="9.1" ry="41.2" transform="rotate(120)"/>
      </g><g transform="translate(152.3,284.5) rotate(121)" opacity="0.09" fill="#ff9ec4">
        <ellipse rx="9.0" ry="40.8"/>
        <ellipse rx="9.0" ry="40.8" transform="rotate(60)"/>
        <ellipse rx="9.0" ry="40.8" transform="rotate(120)"/>
      </g><g transform="translate(737.1,246.5) rotate(298)" opacity="0.17" fill="#ff9ec4">
        <ellipse rx="12.6" ry="57.5"/>
        <ellipse rx="12.6" ry="57.5" transform="rotate(60)"/>
        <ellipse rx="12.6" ry="57.5" transform="rotate(120)"/>
      </g><g transform="translate(93.6,238.5) rotate(234)" opacity="0.20" fill="#ff9ec4">
        <ellipse rx="15.0" ry="68.3"/>
        <ellipse rx="15.0" ry="68.3" transform="rotate(60)"/>
        <ellipse rx="15.0" ry="68.3" transform="rotate(120)"/>
      </g>
<rect x="0" y="354" width="800" height="96" fill="#000" opacity="0.42"/>
<text x="40" y="404" font-family="Segoe UI, Microsoft YaHei, sans-serif" font-size="42" font-weight="700" fill="#fff" letter-spacing="2">百合花</text>
<text x="42" y="430" font-family="Consolas, monospace" font-size="17" fill="#ff9ec4" letter-spacing="4">LILY  /  GALGAME</text>
</svg>