<svg xmlns="http://www.w3.org/2000/svg" viewBox="0 0 880 620" width="880" height="620" role="img">
<defs>
  <linearGradient id="sky1" x1="0" y1="0" x2="0" y2="1">
    <stop offset="0%" stop-color="#050a20"/><stop offset="55%" stop-color="#102048"/><stop offset="100%" stop-color="#2a4a80"/>
  </linearGradient>
  <radialGradient id="glow1" cx="50%" cy="50%" r="50%">
    <stop offset="0%" stop-color="#eaf2ff" stop-opacity="0.95"/><stop offset="45%" stop-color="#eaf2ff" stop-opacity="0.28"/><stop offset="100%" stop-color="#eaf2ff" stop-opacity="0"/>
  </radialGradient>
  <linearGradient id="water1" x1="0" y1="0" x2="0" y2="1">
    <stop offset="0%" stop-color="#2a4a80" stop-opacity="0.55"/><stop offset="100%" stop-color="#0a1330" stop-opacity="0.98"/>
  </linearGradient>
  <radialGradient id="vig1" cx="50%" cy="48%" r="72%">
    <stop offset="55%" stop-color="#000" stop-opacity="0"/><stop offset="100%" stop-color="#000" stop-opacity="0.55"/>
  </radialGradient>
  <filter id="grain1"><feTurbulence type="fractalNoise" baseFrequency="0.9" numOctaves="3" stitchTiles="stitch"/><feColorMatrix type="saturate" values="0"/></filter>
</defs>
<rect width="880" height="620" fill="url(#sky1)"/>
<circle cx="572.0" cy="49.2" r="1.07" fill="#fff" opacity="0.87"/><circle cx="364.8" cy="144.1" r="1.90" fill="#fff" opacity="0.82"/><circle cx="575.7" cy="157.4" r="2.08" fill="#fff" opacity="0.48"/><circle cx="443.7" cy="327.9" r="0.94" fill="#fff" opacity="0.31"/><circle cx="72.7" cy="193.6" r="2.09" fill="#fff" opacity="0.54"/><circle cx="816.4" cy="105.8" r="1.73" fill="#fff" opacity="0.40"/><circle cx="711.0" cy="291.7" r="1.85" fill="#fff" opacity="0.52"/><circle cx="461.1" cy="106.3" r="0.73" fill="#fff" opacity="0.62"/><circle cx="419.8" cy="8.7" r="1.20" fill="#fff" opacity="0.28"/><circle cx="461.1" cy="275.5" r="0.87" fill="#fff" opacity="0.43"/><circle cx="411.7" cy="176.4" r="0.83" fill="#fff" opacity="0.92"/><circle cx="201.3" cy="35.8" r="1.66" fill="#fff" opacity="0.48"/><circle cx="738.8" cy="94.9" r="0.68" fill="#fff" opacity="0.34"/><circle cx="495.9" cy="257.6" r="1.57" fill="#fff" opacity="0.40"/><circle cx="421.1" cy="194.5" r="1.74" fill="#fff" opacity="0.54"/><circle cx="425.8" cy="323.0" r="1.45" fill="#fff" opacity="0.88"/><circle cx="371.6" cy="161.0" r="1.45" fill="#fff" opacity="0.36"/><circle cx="725.3" cy="240.3" r="1.53" fill="#fff" opacity="0.29"/><circle cx="110.7" cy="274.1" r="1.07" fill="#fff" opacity="0.36"/><circle cx="622.8" cy="55.2" r="1.84" fill="#fff" opacity="0.43"/><circle cx="838.3" cy="99.1" r="0.84" fill="#fff" opacity="0.45"/><circle cx="510.9" cy="299.4" r="1.60" fill="#fff" opacity="0.46"/><circle cx="534.3" cy="26.1" r="0.78" fill="#fff" opacity="0.50"/><circle cx="43.2" cy="188.8" r="0.79" fill="#fff" opacity="0.46"/><circle cx="242.4" cy="196.8" r="1.22" fill="#fff" opacity="0.29"/><circle cx="403.2" cy="0.6" r="0.76" fill="#fff" opacity="0.68"/><circle cx="163.0" cy="135.6" r="1.41" fill="#fff" opacity="0.86"/><circle cx="180.4" cy="245.6" r="1.81" fill="#fff" opacity="0.86"/><circle cx="818.8" cy="34.1" r="1.55" fill="#fff" opacity="0.89"/><circle cx="663.7" cy="46.5" r="1.28" fill="#fff" opacity="0.42"/><circle cx="184.2" cy="68.9" r="1.15" fill="#fff" opacity="0.95"/><circle cx="129.0" cy="340.9" r="1.69" fill="#fff" opacity="0.37"/><circle cx="565.1" cy="386.8" r="1.27" fill="#fff" opacity="0.61"/><circle cx="664.3" cy="220.3" r="1.78" fill="#fff" opacity="0.76"/><circle cx="719.4" cy="332.9" r="1.73" fill="#fff" opacity="0.30"/><circle cx="80.9" cy="168.6" r="1.28" fill="#fff" opacity="0.75"/><circle cx="619.8" cy="72.1" r="1.79" fill="#fff" opacity="0.93"/><circle cx="104.8" cy="56.9" r="1.26" fill="#fff" opacity="0.88"/><circle cx="166.7" cy="93.0" r="1.55" fill="#fff" opacity="0.69"/><circle cx="176.7" cy="161.6" r="1.97" fill="#fff" opacity="0.33"/><circle cx="770.1" cy="7.4" r="0.88" fill="#fff" opacity="0.27"/><circle cx="489.9" cy="3.9" r="1.15" fill="#fff" opacity="0.85"/><circle cx="689.3" cy="382.2" r="1.40" fill="#fff" opacity="0.37"/><circle cx="846.1" cy="172.1" r="1.54" fill="#fff" opacity="0.41"/><circle cx="797.7" cy="168.6" r="0.80" fill="#fff" opacity="0.58"/><circle cx="550.5" cy="5.7" r="2.05" fill="#fff" opacity="0.60"/><circle cx="875.5" cy="380.6" r="2.10" fill="#fff" opacity="0.48"/><circle cx="15.2" cy="388.8" r="1.44" fill="#fff" opacity="0.62"/><circle cx="175.1" cy="300.0" r="1.73" fill="#fff" opacity="0.61"/><circle cx="255.6" cy="394.5" r="1.72" fill="#fff" opacity="0.31"/><circle cx="91.3" cy="272.9" r="1.45" fill="#fff" opacity="0.64"/><circle cx="752.7" cy="83.8" r="0.80" fill="#fff" opacity="0.46"/><circle cx="559.1" cy="90.4" r="1.33" fill="#fff" opacity="0.45"/><circle cx="142.2" cy="32.4" r="0.64" fill="#fff" opacity="0.94"/><circle cx="534.9" cy="220.0" r="2.09" fill="#fff" opacity="0.84"/><circle cx="104.2" cy="242.6" r="1.21" fill="#fff" opacity="0.30"/><circle cx="555.7" cy="5.6" r="1.60" fill="#fff" opacity="0.28"/><circle cx="759.1" cy="372.8" r="1.86" fill="#fff" opacity="0.42"/><circle cx="165.4" cy="204.1" r="1.85" fill="#fff" opacity="0.64"/><circle cx="50.1" cy="95.6" r="1.23" fill="#fff" opacity="0.89"/><circle cx="396.6" cy="353.4" r="1.71" fill="#fff" opacity="0.38"/><circle cx="633.3" cy="165.0" r="1.34" fill="#fff" opacity="0.41"/><circle cx="102.9" cy="238.4" r="1.49" fill="#fff" opacity="0.86"/><circle cx="460.6" cy="88.4" r="1.89" fill="#fff" opacity="0.48"/><circle cx="502.7" cy="57.2" r="0.97" fill="#fff" opacity="0.65"/><circle cx="198.3" cy="179.8" r="1.97" fill="#fff" opacity="0.50"/><circle cx="403.8" cy="138.4" r="1.96" fill="#fff" opacity="0.89"/><circle cx="132.8" cy="111.6" r="1.81" fill="#fff" opacity="0.42"/><circle cx="163.4" cy="29.9" r="1.29" fill="#fff" opacity="0.36"/><circle cx="84.5" cy="324.8" r="0.72" fill="#fff" opacity="0.69"/><circle cx="378.4" cy="267.8" r="2.05" fill="#fff" opacity="0.65"/><circle cx="788.6" cy="383.1" r="0.91" fill="#fff" opacity="0.44"/><circle cx="19.8" cy="52.8" r="0.61" fill="#fff" opacity="0.34"/><circle cx="20.7" cy="37.4" r="1.73" fill="#fff" opacity="0.69"/><circle cx="50.8" cy="285.1" r="1.34" fill="#fff" opacity="0.95"/><circle cx="456.4" cy="334.7" r="1.37" fill="#fff" opacity="0.33"/><circle cx="822.0" cy="378.1" r="1.15" fill="#fff" opacity="0.64"/><circle cx="182.6" cy="104.1" r="1.19" fill="#fff" opacity="0.43"/><circle cx="299.1" cy="125.2" r="2.10" fill="#fff" opacity="0.67"/><circle cx="274.8" cy="116.6" r="1.85" fill="#fff" opacity="0.56"/><circle cx="633.7" cy="174.8" r="1.69" fill="#fff" opacity="0.66"/><circle cx="681.5" cy="247.7" r="1.22" fill="#fff" opacity="0.39"/><circle cx="696.4" cy="50.9" r="2.05" fill="#fff" opacity="0.85"/><circle cx="837.0" cy="369.0" r="0.74" fill="#fff" opacity="0.88"/><circle cx="324.5" cy="236.0" r="2.02" fill="#fff" opacity="0.30"/><circle cx="313.1" cy="302.4" r="0.79" fill="#fff" opacity="0.68"/><circle cx="81.3" cy="134.9" r="1.93" fill="#fff" opacity="0.37"/><circle cx="693.9" cy="269.4" r="1.79" fill="#fff" opacity="0.63"/><circle cx="712.5" cy="114.6" r="1.63" fill="#fff" opacity="0.53"/><circle cx="824.5" cy="281.4" r="0.89" fill="#fff" opacity="0.42"/><ellipse cx="866.6" cy="236.9" rx="149.1" ry="26.6" fill="#eaf2ff" opacity="0.07"/><ellipse cx="336.7" cy="322.1" rx="190.0" ry="26.3" fill="#eaf2ff" opacity="0.11"/><ellipse cx="102.0" cy="192.8" rx="212.7" ry="25.9" fill="#eaf2ff" opacity="0.09"/><ellipse cx="871.4" cy="313.2" rx="209.6" ry="22.4" fill="#eaf2ff" opacity="0.13"/><ellipse cx="98.9" cy="310.4" rx="115.4" ry="13.4" fill="#eaf2ff" opacity="0.10"/><ellipse cx="33.6" cy="134.9" rx="135.3" ry="27.7" fill="#eaf2ff" opacity="0.10"/><ellipse cx="159.0" cy="228.5" rx="187.3" ry="23.7" fill="#eaf2ff" opacity="0.09"/>
<circle cx="230.4" cy="168.0" r="196.8" fill="url(#glow1)"/>
<circle cx="230.4" cy="168.0" r="46.9" fill="#eaf2ff" opacity="0.92"/>
<path d="M0,586 L0,346 L0.0,346.0 L110.0,298.1 L220.0,280.6 L330.0,264.4 L440.0,263.0 L550.0,248.6 L660.0,270.1 L770.0,305.5 L880.0,346.0 L880,346 L880,586 Z" fill="#16224a"/>
<path d="M0,636 L0,396 L0.0,396.0 L125.7,369.3 L251.4,344.3 L377.1,342.7 L502.9,298.0 L628.6,334.1 L754.3,363.0 L880.0,396.0 L880,396 L880,636 Z" fill="#0d1636"/>
<g opacity="0.9"><g transform="translate(466.1,424.4)" fill="#0d1636"><path d="M0,0.0 L48.3,0.0 L0,-44.4 L-48.3,0.0 Z"/><path d="M0,-29.6 L37.3,-29.6 L0,-74.0 L-37.3,-29.6 Z"/><path d="M0,-59.2 L26.3,-59.2 L0,-103.7 L-26.3,-59.2 Z"/><rect x="-4.4" y="0" width="8.8" height="17.6"/></g><g transform="translate(797.9,415.2)" fill="#0d1636"><path d="M0,0.0 L52.3,0.0 L0,-48.1 L-52.3,0.0 Z"/><path d="M0,-32.1 L40.4,-32.1 L0,-80.2 L-40.4,-32.1 Z"/><path d="M0,-64.1 L28.5,-64.1 L0,-112.2 L-28.5,-64.1 Z"/><rect x="-4.8" y="0" width="9.5" height="19.0"/></g><g transform="translate(670.5,428.6)" fill="#0d1636"><path d="M0,0.0 L31.6,0.0 L0,-29.1 L-31.6,0.0 Z"/><path d="M0,-19.4 L24.4,-19.4 L0,-48.5 L-24.4,-19.4 Z"/><path d="M0,-38.8 L17.3,-38.8 L0,-67.9 L-17.3,-38.8 Z"/><rect x="-2.9" y="0" width="5.8" height="11.5"/></g><g transform="translate(424.9,421.2)" fill="#0d1636"><path d="M0,0.0 L58.6,0.0 L0,-54.0 L-58.6,0.0 Z"/><path d="M0,-36.0 L45.3,-36.0 L0,-90.0 L-45.3,-36.0 Z"/><path d="M0,-72.0 L32.0,-72.0 L0,-125.9 L-32.0,-72.0 Z"/><rect x="-5.3" y="0" width="10.7" height="21.3"/></g><g transform="translate(715.3,418.5)" fill="#0d1636"><path d="M0,0.0 L33.4,0.0 L0,-30.8 L-33.4,0.0 Z"/><path d="M0,-20.5 L25.8,-20.5 L0,-51.3 L-25.8,-20.5 Z"/><path d="M0,-41.0 L18.2,-41.0 L0,-71.8 L-18.2,-41.0 Z"/><rect x="-3.0" y="0" width="6.1" height="12.2"/></g><g transform="translate(299.7,411.9)" fill="#0d1636"><path d="M0,0.0 L51.4,0.0 L0,-47.3 L-51.4,0.0 Z"/><path d="M0,-31.5 L39.7,-31.5 L0,-78.8 L-39.7,-31.5 Z"/><path d="M0,-63.1 L28.0,-63.1 L0,-110.4 L-28.0,-63.1 Z"/><rect x="-4.7" y="0" width="9.3" height="18.7"/></g><g transform="translate(565.4,420.1)" fill="#0d1636"><path d="M0,0.0 L36.7,0.0 L0,-33.8 L-36.7,0.0 Z"/><path d="M0,-22.5 L28.4,-22.5 L0,-56.3 L-28.4,-22.5 Z"/><path d="M0,-45.1 L20.0,-45.1 L0,-78.8 L-20.0,-45.1 Z"/><rect x="-3.3" y="0" width="6.7" height="13.4"/></g></g>
<rect x="0" y="436" width="880" height="184" fill="url(#water1)"/>
<rect x="200.4" y="436" width="60" height="184" fill="#eaf2ff" opacity="0.22"/>
<g opacity="0.55"><rect x="393.4" y="444.0" width="247.0" height="2.7" fill="#eaf2ff" opacity="0.16"/><rect x="594.6" y="455.5" width="162.8" height="2.4" fill="#eaf2ff" opacity="0.15"/><rect x="221.0" y="467.0" width="243.0" height="3.0" fill="#eaf2ff" opacity="0.09"/><rect x="58.8" y="478.5" width="134.6" height="2.1" fill="#eaf2ff" opacity="0.09"/><rect x="489.7" y="490.0" width="85.7" height="2.6" fill="#eaf2ff" opacity="0.20"/><rect x="96.2" y="501.5" width="169.5" height="1.4" fill="#eaf2ff" opacity="0.08"/><rect x="266.0" y="513.0" width="269.1" height="1.8" fill="#eaf2ff" opacity="0.11"/><rect x="56.3" y="524.5" width="68.7" height="2.6" fill="#eaf2ff" opacity="0.19"/><rect x="360.9" y="536.0" width="168.3" height="1.8" fill="#eaf2ff" opacity="0.16"/><rect x="148.7" y="547.5" width="51.2" height="1.5" fill="#eaf2ff" opacity="0.15"/><rect x="128.6" y="559.0" width="245.1" height="1.7" fill="#eaf2ff" opacity="0.09"/><rect x="510.9" y="570.5" width="146.1" height="2.7" fill="#eaf2ff" opacity="0.11"/><rect x="449.3" y="582.0" width="206.4" height="2.4" fill="#eaf2ff" opacity="0.10"/><rect x="48.9" y="593.5" width="243.6" height="2.4" fill="#eaf2ff" opacity="0.10"/><rect x="16.2" y="605.0" width="259.3" height="2.3" fill="#eaf2ff" opacity="0.12"/><rect x="172.3" y="616.5" width="89.8" height="1.7" fill="#eaf2ff" opacity="0.18"/></g>
<path d="M0,820 L0,580 L0.0,580.0 L146.7,547.7 L293.3,492.4 L440.0,486.1 L586.7,524.2 L733.3,549.3 L880.0,580.0 L880,580 L880,820 Z" fill="#050a1c"/>
<g><g transform="translate(698.2,589.7)" fill="#050a1c"><path d="M0,0.0 L48.9,0.0 L0,-45.0 L-48.9,0.0 Z"/><path d="M0,-30.0 L37.8,-30.0 L0,-75.0 L-37.8,-30.0 Z"/><path d="M0,-60.0 L26.7,-60.0 L0,-105.0 L-26.7,-60.0 Z"/><rect x="-4.4" y="0" width="8.9" height="17.8"/></g><g transform="translate(853.2,591.1)" fill="#050a1c"><path d="M0,0.0 L50.7,0.0 L0,-46.6 L-50.7,0.0 Z"/><path d="M0,-31.1 L39.2,-31.1 L0,-77.7 L-39.2,-31.1 Z"/><path d="M0,-62.2 L27.6,-62.2 L0,-108.8 L-27.6,-62.2 Z"/><rect x="-4.6" y="0" width="9.2" height="18.4"/></g><g transform="translate(69.8,593.6)" fill="#050a1c"><path d="M0,0.0 L53.7,0.0 L0,-49.4 L-53.7,0.0 Z"/><path d="M0,-33.0 L41.5,-33.0 L0,-82.4 L-41.5,-33.0 Z"/><path d="M0,-65.9 L29.3,-65.9 L0,-115.4 L-29.3,-65.9 Z"/><rect x="-4.9" y="0" width="9.8" height="19.5"/></g><g transform="translate(572.0,598.3)" fill="#050a1c"><path d="M0,0.0 L59.0,0.0 L0,-54.3 L-59.0,0.0 Z"/><path d="M0,-36.2 L45.6,-36.2 L0,-90.4 L-45.6,-36.2 Z"/><path d="M0,-72.4 L32.2,-72.4 L0,-126.6 L-32.2,-72.4 Z"/><rect x="-5.4" y="0" width="10.7" height="21.4"/></g><g transform="translate(581.1,608.3)" fill="#050a1c"><path d="M0,0.0 L92.2,0.0 L0,-84.9 L-92.2,0.0 Z"/><path d="M0,-56.6 L71.3,-56.6 L0,-141.5 L-71.3,-56.6 Z"/><path d="M0,-113.2 L50.3,-113.2 L0,-198.1 L-50.3,-113.2 Z"/><rect x="-8.4" y="0" width="16.8" height="33.5"/></g></g>
<ellipse cx="68.9" cy="275.0" rx="3.3" ry="1.8" fill="#8fd3ff" opacity="0.43" transform="rotate(8,68.9,275.0)"/><ellipse cx="458.3" cy="396.8" rx="4.4" ry="2.4" fill="#8fd3ff" opacity="0.21" transform="rotate(65,458.3,396.8)"/><ellipse cx="760.3" cy="241.0" rx="2.6" ry="1.4" fill="#8fd3ff" opacity="0.26" transform="rotate(16,760.3,241.0)"/><ellipse cx="533.0" cy="338.1" rx="3.4" ry="1.9" fill="#8fd3ff" opacity="0.42" transform="rotate(78,533.0,338.1)"/><ellipse cx="291.4" cy="312.1" rx="5.8" ry="3.2" fill="#8fd3ff" opacity="0.31" transform="rotate(12,291.4,312.1)"/><ellipse cx="759.5" cy="57.8" rx="4.4" ry="2.4" fill="#8fd3ff" opacity="0.49" transform="rotate(20,759.5,57.8)"/><ellipse cx="432.7" cy="554.1" rx="3.0" ry="1.7" fill="#8fd3ff" opacity="0.43" transform="rotate(35,432.7,554.1)"/><ellipse cx="589.5" cy="22.9" rx="2.7" ry="1.5" fill="#8fd3ff" opacity="0.55" transform="rotate(47,589.5,22.9)"/><ellipse cx="564.1" cy="414.8" rx="2.5" ry="1.4" fill="#8fd3ff" opacity="0.48" transform="rotate(25,564.1,414.8)"/><ellipse cx="129.5" cy="117.9" rx="3.5" ry="1.9" fill="#8fd3ff" opacity="0.46" transform="rotate(37,129.5,117.9)"/><ellipse cx="605.7" cy="299.6" rx="2.4" ry="1.3" fill="#8fd3ff" opacity="0.35" transform="rotate(32,605.7,299.6)"/><ellipse cx="858.4" cy="359.3" rx="2.6" ry="1.5" fill="#8fd3ff" opacity="0.22" transform="rotate(11,858.4,359.3)"/><ellipse cx="226.1" cy="94.5" rx="2.4" ry="1.3" fill="#8fd3ff" opacity="0.34" transform="rotate(50,226.1,94.5)"/><ellipse cx="128.0" cy="330.4" rx="2.1" ry="1.1" fill="#8fd3ff" opacity="0.25" transform="rotate(1,128.0,330.4)"/><ellipse cx="399.9" cy="376.0" rx="4.3" ry="2.4" fill="#8fd3ff" opacity="0.30" transform="rotate(42,399.9,376.0)"/><ellipse cx="87.6" cy="327.1" rx="5.0" ry="2.7" fill="#8fd3ff" opacity="0.53" transform="rotate(56,87.6,327.1)"/><ellipse cx="711.8" cy="225.4" rx="5.3" ry="2.9" fill="#8fd3ff" opacity="0.25" transform="rotate(85,711.8,225.4)"/><ellipse cx="207.4" cy="332.5" rx="5.1" ry="2.8" fill="#8fd3ff" opacity="0.40" transform="rotate(11,207.4,332.5)"/><ellipse cx="206.6" cy="20.0" rx="5.4" ry="3.0" fill="#8fd3ff" opacity="0.50" transform="rotate(25,206.6,20.0)"/><ellipse cx="443.1" cy="450.2" rx="5.4" ry="3.0" fill="#8fd3ff" opacity="0.54" transform="rotate(89,443.1,450.2)"/><ellipse cx="689.7" cy="377.2" rx="3.5" ry="1.9" fill="#8fd3ff" opacity="0.24" transform="rotate(44,689.7,377.2)"/><ellipse cx="696.0" cy="375.8" rx="4.1" ry="2.2" fill="#8fd3ff" opacity="0.28" transform="rotate(43,696.0,375.8)"/><ellipse cx="71.7" cy="154.8" rx="3.7" ry="2.1" fill="#8fd3ff" opacity="0.24" transform="rotate(8,71.7,154.8)"/><ellipse cx="664.7" cy="270.7" rx="3.3" ry="1.8" fill="#8fd3ff" opacity="0.27" transform="rotate(5,664.7,270.7)"/><ellipse cx="505.3" cy="541.0" rx="3.7" ry="2.0" fill="#8fd3ff" opacity="0.41" transform="rotate(89,505.3,541.0)"/><ellipse cx="846.4" cy="242.8" rx="3.3" ry="1.8" fill="#8fd3ff" opacity="0.24" transform="rotate(59,846.4,242.8)"/><ellipse cx="24.2" cy="104.9" rx="4.2" ry="2.3" fill="#8fd3ff" opacity="0.31" transform="rotate(23,24.2,104.9)"/><ellipse cx="554.0" cy="120.9" rx="6.0" ry="3.3" fill="#8fd3ff" opacity="0.20" transform="rotate(11,554.0,120.9)"/><ellipse cx="638.1" cy="612.8" rx="4.8" ry="2.6" fill="#8fd3ff" opacity="0.27" transform="rotate(65,638.1,612.8)"/><ellipse cx="858.8" cy="442.0" rx="2.6" ry="1.4" fill="#8fd3ff" opacity="0.33" transform="rotate(15,858.8,442.0)"/><ellipse cx="255.8" cy="454.1" rx="2.3" ry="1.2" fill="#8fd3ff" opacity="0.55" transform="rotate(79,255.8,454.1)"/><ellipse cx="573.8" cy="444.1" rx="3.7" ry="2.0" fill="#8fd3ff" opacity="0.21" transform="rotate(59,573.8,444.1)"/><ellipse cx="158.8" cy="246.0" rx="2.1" ry="1.1" fill="#8fd3ff" opacity="0.46" transform="rotate(42,158.8,246.0)"/><ellipse cx="72.0" cy="577.1" rx="4.4" ry="2.4" fill="#8fd3ff" opacity="0.21" transform="rotate(42,72.0,577.1)"/>
<rect width="880" height="620" fill="url(#vig1)"/>
<rect width="880" height="620" filter="url(#grain1)" opacity="0.05"/>
</svg>