<svg xmlns="http://www.w3.org/2000/svg" viewBox="0 0 880 620" width="880" height="620" role="img">
<defs>
  <linearGradient id="sky4" x1="0" y1="0" x2="0" y2="1">
    <stop offset="0%" stop-color="#150a2e"/><stop offset="55%" stop-color="#3c1f66"/><stop offset="100%" stop-color="#9a6ad6"/>
  </linearGradient>
  <radialGradient id="glow4" cx="50%" cy="50%" r="50%">
    <stop offset="0%" stop-color="#f0dcff" stop-opacity="0.95"/><stop offset="45%" stop-color="#f0dcff" stop-opacity="0.28"/><stop offset="100%" stop-color="#f0dcff" stop-opacity="0"/>
  </radialGradient>
  <linearGradient id="water4" x1="0" y1="0" x2="0" y2="1">
    <stop offset="0%" stop-color="#9a6ad6" stop-opacity="0.55"/><stop offset="100%" stop-color="#1a0d33" stop-opacity="0.98"/>
  </linearGradient>
  <radialGradient id="vig4" cx="50%" cy="48%" r="72%">
    <stop offset="55%" stop-color="#000" stop-opacity="0"/><stop offset="100%" stop-color="#000" stop-opacity="0.55"/>
  </radialGradient>
  <filter id="grain4"><feTurbulence type="fractalNoise" baseFrequency="0.9" numOctaves="3" stitchTiles="stitch"/><feColorMatrix type="saturate" values="0"/></filter>
</defs>
<rect width="880" height="620" fill="url(#sky4)"/>
<circle cx="698.6" cy="357.3" r="2.04" fill="#fff" opacity="0.63"/><circle cx="801.0" cy="260.8" r="1.74" fill="#fff" opacity="0.69"/><circle cx="272.2" cy="282.7" r="1.44" fill="#fff" opacity="0.46"/><circle cx="696.9" cy="316.7" r="0.86" fill="#fff" opacity="0.79"/><circle cx="676.5" cy="241.2" r="1.67" fill="#fff" opacity="0.43"/><circle cx="561.9" cy="172.4" r="1.08" fill="#fff" opacity="0.42"/><circle cx="322.8" cy="205.2" r="1.55" fill="#fff" opacity="0.80"/><circle cx="148.7" cy="188.4" r="0.77" fill="#fff" opacity="0.58"/><circle cx="663.5" cy="80.9" r="1.47" fill="#fff" opacity="0.80"/><circle cx="598.8" cy="233.6" r="1.36" fill="#fff" opacity="0.61"/><circle cx="722.0" cy="92.3" r="0.65" fill="#fff" opacity="0.88"/><circle cx="661.3" cy="142.3" r="1.71" fill="#fff" opacity="0.46"/><circle cx="92.3" cy="286.2" r="1.24" fill="#fff" opacity="0.66"/><circle cx="425.5" cy="288.0" r="1.10" fill="#fff" opacity="0.87"/><circle cx="142.7" cy="350.3" r="1.74" fill="#fff" opacity="0.80"/><circle cx="121.7" cy="143.8" r="1.73" fill="#fff" opacity="0.73"/><circle cx="785.1" cy="208.0" r="1.62" fill="#fff" opacity="0.94"/><circle cx="681.5" cy="106.4" r="1.72" fill="#fff" opacity="0.90"/><circle cx="17.5" cy="79.4" r="1.57" fill="#fff" opacity="0.59"/><circle cx="616.9" cy="117.1" r="1.73" fill="#fff" opacity="0.75"/><circle cx="334.7" cy="245.7" r="2.06" fill="#fff" opacity="0.76"/><circle cx="118.3" cy="34.1" r="1.45" fill="#fff" opacity="0.63"/><circle cx="557.6" cy="276.1" r="1.20" fill="#fff" opacity="0.67"/><circle cx="50.5" cy="48.3" r="1.81" fill="#fff" opacity="0.61"/><circle cx="787.6" cy="106.5" r="2.04" fill="#fff" opacity="0.57"/><circle cx="184.3" cy="260.8" r="0.89" fill="#fff" opacity="0.76"/><circle cx="564.9" cy="216.8" r="2.03" fill="#fff" opacity="0.59"/><circle cx="483.8" cy="62.1" r="1.32" fill="#fff" opacity="0.87"/><circle cx="710.1" cy="296.1" r="2.07" fill="#fff" opacity="0.87"/><circle cx="556.2" cy="40.6" r="1.36" fill="#fff" opacity="0.39"/><circle cx="136.8" cy="148.7" r="1.41" fill="#fff" opacity="0.51"/><circle cx="756.7" cy="270.2" r="1.06" fill="#fff" opacity="0.26"/><circle cx="433.6" cy="195.7" r="1.87" fill="#fff" opacity="0.91"/><circle cx="548.4" cy="147.6" r="1.22" fill="#fff" opacity="0.53"/><circle cx="370.4" cy="142.3" r="1.97" fill="#fff" opacity="0.76"/><circle cx="453.7" cy="161.0" r="0.92" fill="#fff" opacity="0.33"/><circle cx="13.5" cy="156.4" r="1.26" fill="#fff" opacity="0.57"/><circle cx="18.8" cy="165.0" r="1.97" fill="#fff" opacity="0.68"/><circle cx="280.5" cy="167.3" r="1.73" fill="#fff" opacity="0.77"/><circle cx="752.4" cy="61.2" r="1.43" fill="#fff" opacity="0.80"/><circle cx="345.4" cy="253.6" r="1.33" fill="#fff" opacity="0.30"/><circle cx="457.2" cy="352.2" r="2.06" fill="#fff" opacity="0.37"/><circle cx="721.8" cy="107.1" r="0.94" fill="#fff" opacity="0.94"/><circle cx="420.9" cy="316.0" r="1.41" fill="#fff" opacity="0.68"/><circle cx="825.6" cy="290.9" r="0.92" fill="#fff" opacity="0.59"/><circle cx="61.8" cy="113.8" r="2.09" fill="#fff" opacity="0.28"/><circle cx="150.3" cy="291.6" r="1.90" fill="#fff" opacity="0.75"/><circle cx="871.4" cy="98.2" r="1.33" fill="#fff" opacity="0.37"/><circle cx="808.5" cy="139.0" r="0.93" fill="#fff" opacity="0.77"/><circle cx="341.8" cy="354.5" r="1.86" fill="#fff" opacity="0.38"/><circle cx="139.8" cy="319.7" r="1.97" fill="#fff" opacity="0.67"/><circle cx="343.8" cy="83.5" r="0.90" fill="#fff" opacity="0.92"/><circle cx="80.5" cy="221.5" r="1.62" fill="#fff" opacity="0.77"/><circle cx="194.9" cy="32.7" r="0.84" fill="#fff" opacity="0.33"/><circle cx="546.5" cy="140.0" r="1.24" fill="#fff" opacity="0.78"/><circle cx="534.3" cy="121.1" r="1.88" fill="#fff" opacity="0.61"/><circle cx="119.4" cy="237.1" r="1.27" fill="#fff" opacity="0.71"/><circle cx="276.6" cy="247.2" r="0.79" fill="#fff" opacity="0.89"/><circle cx="146.1" cy="98.9" r="0.71" fill="#fff" opacity="0.34"/><circle cx="238.1" cy="78.2" r="1.00" fill="#fff" opacity="0.79"/><circle cx="668.8" cy="53.4" r="1.68" fill="#fff" opacity="0.61"/><circle cx="111.9" cy="142.3" r="1.31" fill="#fff" opacity="0.78"/><circle cx="386.5" cy="71.3" r="0.81" fill="#fff" opacity="0.55"/><circle cx="358.2" cy="302.1" r="1.00" fill="#fff" opacity="0.78"/><circle cx="227.0" cy="161.1" r="1.67" fill="#fff" opacity="0.85"/><circle cx="94.0" cy="123.8" r="1.57" fill="#fff" opacity="0.68"/><circle cx="81.6" cy="151.4" r="1.94" fill="#fff" opacity="0.63"/><circle cx="507.9" cy="355.6" r="1.72" fill="#fff" opacity="0.28"/><circle cx="149.3" cy="129.1" r="1.02" fill="#fff" opacity="0.56"/><circle cx="298.8" cy="337.2" r="1.44" fill="#fff" opacity="0.42"/><circle cx="434.3" cy="241.9" r="1.61" fill="#fff" opacity="0.52"/><circle cx="276.0" cy="58.7" r="1.31" fill="#fff" opacity="0.32"/><circle cx="617.1" cy="113.8" r="1.46" fill="#fff" opacity="0.53"/><circle cx="728.7" cy="10.9" r="0.72" fill="#fff" opacity="0.73"/><circle cx="48.8" cy="18.9" r="1.36" fill="#fff" opacity="0.85"/><circle cx="32.4" cy="190.5" r="1.52" fill="#fff" opacity="0.69"/><circle cx="837.2" cy="183.0" r="1.98" fill="#fff" opacity="0.49"/><circle cx="747.8" cy="272.7" r="0.84" fill="#fff" opacity="0.36"/><circle cx="602.0" cy="243.2" r="1.19" fill="#fff" opacity="0.49"/><circle cx="57.7" cy="339.9" r="1.16" fill="#fff" opacity="0.85"/><circle cx="114.4" cy="25.1" r="1.91" fill="#fff" opacity="0.52"/><circle cx="592.5" cy="172.5" r="1.33" fill="#fff" opacity="0.65"/><circle cx="130.8" cy="40.9" r="0.62" fill="#fff" opacity="0.64"/><circle cx="528.3" cy="74.1" r="0.67" fill="#fff" opacity="0.58"/><circle cx="742.5" cy="192.7" r="1.35" fill="#fff" opacity="0.83"/><circle cx="653.7" cy="195.3" r="1.07" fill="#fff" opacity="0.88"/><circle cx="853.7" cy="330.0" r="1.03" fill="#fff" opacity="0.81"/><circle cx="505.2" cy="245.4" r="1.20" fill="#fff" opacity="0.38"/><circle cx="129.8" cy="198.3" r="1.46" fill="#fff" opacity="0.75"/><circle cx="725.1" cy="343.1" r="0.84" fill="#fff" opacity="0.90"/><ellipse cx="64.9" cy="166.2" rx="205.5" ry="23.0" fill="#f0dcff" opacity="0.12"/><ellipse cx="734.1" cy="179.6" rx="175.2" ry="26.1" fill="#f0dcff" opacity="0.10"/><ellipse cx="794.7" cy="277.0" rx="128.1" ry="25.5" fill="#f0dcff" opacity="0.10"/><ellipse cx="754.8" cy="184.2" rx="188.7" ry="10.2" fill="#f0dcff" opacity="0.14"/><ellipse cx="98.7" cy="237.5" rx="188.9" ry="11.0" fill="#f0dcff" opacity="0.11"/><ellipse cx="445.1" cy="310.6" rx="173.8" ry="17.5" fill="#f0dcff" opacity="0.12"/><ellipse cx="172.9" cy="84.0" rx="191.7" ry="19.8" fill="#f0dcff" opacity="0.10"/>
<circle cx="502.8" cy="122.3" r="255.5" fill="url(#glow4)"/>
<circle cx="502.8" cy="122.3" r="60.8" fill="#f0dcff" opacity="0.92"/>
<path d="M0,551 L0,311 L0.0,311.0 L110.0,258.9 L220.0,209.8 L330.0,182.1 L440.0,178.8 L550.0,246.6 L660.0,219.3 L770.0,274.3 L880.0,311.0 L880,311 L880,551 Z" fill="#2c1750"/>
<path d="M0,601 L0,361 L0.0,361.0 L125.7,322.7 L251.4,290.5 L377.1,295.7 L502.9,303.4 L628.6,322.9 L754.3,318.6 L880.0,361.0 L880,361 L880,601 Z" fill="#1d0f36"/>
<g opacity="0.9"><g transform="translate(653.4,398.9)" fill="#1d0f36"><path d="M0,0.0 L54.7,0.0 L0,-50.3 L-54.7,0.0 Z"/><path d="M0,-33.6 L42.3,-33.6 L0,-83.9 L-42.3,-33.6 Z"/><path d="M0,-67.1 L29.8,-67.1 L0,-117.4 L-29.8,-67.1 Z"/><rect x="-5.0" y="0" width="9.9" height="19.9"/></g><g transform="translate(520.2,382.6)" fill="#1d0f36"><path d="M0,0.0 L50.3,0.0 L0,-46.3 L-50.3,0.0 Z"/><path d="M0,-30.9 L38.9,-30.9 L0,-77.2 L-38.9,-30.9 Z"/><path d="M0,-61.7 L27.4,-61.7 L0,-108.0 L-27.4,-61.7 Z"/><rect x="-4.6" y="0" width="9.1" height="18.3"/></g><g transform="translate(646.5,390.0)" fill="#1d0f36"><path d="M0,0.0 L64.4,0.0 L0,-59.3 L-64.4,0.0 Z"/><path d="M0,-39.5 L49.8,-39.5 L0,-98.8 L-49.8,-39.5 Z"/><path d="M0,-79.1 L35.1,-79.1 L0,-138.4 L-35.1,-79.1 Z"/><rect x="-5.9" y="0" width="11.7" height="23.4"/></g><g transform="translate(425.6,383.5)" fill="#1d0f36"><path d="M0,0.0 L41.8,0.0 L0,-38.5 L-41.8,0.0 Z"/><path d="M0,-25.7 L32.3,-25.7 L0,-64.1 L-32.3,-25.7 Z"/><path d="M0,-51.3 L22.8,-51.3 L0,-89.8 L-22.8,-51.3 Z"/><rect x="-3.8" y="0" width="7.6" height="15.2"/></g><g transform="translate(357.2,389.9)" fill="#1d0f36"><path d="M0,0.0 L32.8,0.0 L0,-30.2 L-32.8,0.0 Z"/><path d="M0,-20.2 L25.4,-20.2 L0,-50.4 L-25.4,-20.2 Z"/><path d="M0,-40.3 L17.9,-40.3 L0,-70.5 L-17.9,-40.3 Z"/><rect x="-3.0" y="0" width="6.0" height="11.9"/></g><g transform="translate(176.4,387.8)" fill="#1d0f36"><path d="M0,0.0 L43.6,0.0 L0,-40.1 L-43.6,0.0 Z"/><path d="M0,-26.7 L33.7,-26.7 L0,-66.8 L-33.7,-26.7 Z"/><path d="M0,-53.5 L23.8,-53.5 L0,-93.6 L-23.8,-53.5 Z"/><rect x="-4.0" y="0" width="7.9" height="15.8"/></g><g transform="translate(834.4,387.3)" fill="#1d0f36"><path d="M0,0.0 L63.5,0.0 L0,-58.4 L-63.5,0.0 Z"/><path d="M0,-38.9 L49.0,-38.9 L0,-97.3 L-49.0,-38.9 Z"/><path d="M0,-77.9 L34.6,-77.9 L0,-136.3 L-34.6,-77.9 Z"/><rect x="-5.8" y="0" width="11.5" height="23.1"/></g></g>
<rect x="0" y="401" width="880" height="219" fill="url(#water4)"/>
<rect x="472.8" y="401" width="60" height="219" fill="#f0dcff" opacity="0.22"/>
<g opacity="0.55"><rect x="631.8" y="409.0" width="128.8" height="2.7" fill="#f0dcff" opacity="0.11"/><rect x="12.7" y="422.7" width="247.4" height="1.5" fill="#f0dcff" opacity="0.17"/><rect x="442.3" y="436.4" width="162.1" height="1.8" fill="#f0dcff" opacity="0.10"/><rect x="211.0" y="450.1" width="139.0" height="2.5" fill="#f0dcff" opacity="0.11"/><rect x="409.5" y="463.8" width="92.8" height="2.2" fill="#f0dcff" opacity="0.13"/><rect x="424.0" y="477.4" width="204.8" height="1.2" fill="#f0dcff" opacity="0.09"/><rect x="379.0" y="491.1" width="90.3" height="1.5" fill="#f0dcff" opacity="0.14"/><rect x="127.1" y="504.8" width="148.1" height="1.8" fill="#f0dcff" opacity="0.10"/><rect x="447.7" y="518.5" width="268.8" height="2.5" fill="#f0dcff" opacity="0.17"/><rect x="428.7" y="532.2" width="47.6" height="2.2" fill="#f0dcff" opacity="0.20"/><rect x="201.8" y="545.9" width="230.3" height="2.4" fill="#f0dcff" opacity="0.12"/><rect x="401.0" y="559.6" width="110.9" height="1.8" fill="#f0dcff" opacity="0.11"/><rect x="591.8" y="573.3" width="202.2" height="2.1" fill="#f0dcff" opacity="0.17"/><rect x="349.3" y="586.9" width="173.8" height="1.6" fill="#f0dcff" opacity="0.20"/><rect x="270.0" y="600.6" width="141.2" height="3.0" fill="#f0dcff" opacity="0.07"/><rect x="368.1" y="614.3" width="222.0" height="2.3" fill="#f0dcff" opacity="0.07"/></g>
<path d="M0,820 L0,580 L0.0,580.0 L146.7,537.5 L293.3,525.3 L440.0,509.2 L586.7,533.1 L733.3,528.7 L880.0,580.0 L880,580 L880,820 Z" fill="#0b0518"/>
<g><g transform="translate(529.4,611.9)" fill="#0b0518"><path d="M0,0.0 L74.7,0.0 L0,-68.7 L-74.7,0.0 Z"/><path d="M0,-45.8 L57.7,-45.8 L0,-114.6 L-57.7,-45.8 Z"/><path d="M0,-91.7 L40.7,-91.7 L0,-160.4 L-40.7,-91.7 Z"/><rect x="-6.8" y="0" width="13.6" height="27.2"/></g><g transform="translate(387.5,592.4)" fill="#0b0518"><path d="M0,0.0 L77.0,0.0 L0,-70.9 L-77.0,0.0 Z"/><path d="M0,-47.3 L59.5,-47.3 L0,-118.1 L-59.5,-47.3 Z"/><path d="M0,-94.5 L42.0,-94.5 L0,-165.4 L-42.0,-94.5 Z"/><rect x="-7.0" y="0" width="14.0" height="28.0"/></g><g transform="translate(170.9,590.3)" fill="#0b0518"><path d="M0,0.0 L55.0,0.0 L0,-50.6 L-55.0,0.0 Z"/><path d="M0,-33.7 L42.5,-33.7 L0,-84.3 L-42.5,-33.7 Z"/><path d="M0,-67.5 L30.0,-67.5 L0,-118.1 L-30.0,-67.5 Z"/><rect x="-5.0" y="0" width="10.0" height="20.0"/></g><g transform="translate(188.3,604.1)" fill="#0b0518"><path d="M0,0.0 L84.3,0.0 L0,-77.6 L-84.3,0.0 Z"/><path d="M0,-51.8 L65.2,-51.8 L0,-129.4 L-65.2,-51.8 Z"/><path d="M0,-103.5 L46.0,-103.5 L0,-181.1 L-46.0,-103.5 Z"/><rect x="-7.7" y="0" width="15.3" height="30.7"/></g><g transform="translate(801.7,598.5)" fill="#0b0518"><path d="M0,0.0 L84.1,0.0 L0,-77.4 L-84.1,0.0 Z"/><path d="M0,-51.6 L65.0,-51.6 L0,-129.0 L-65.0,-51.6 Z"/><path d="M0,-103.2 L45.9,-103.2 L0,-180.7 L-45.9,-103.2 Z"/><rect x="-7.6" y="0" width="15.3" height="30.6"/></g></g>
<ellipse cx="246.6" cy="239.9" rx="4.9" ry="2.7" fill="#c79bff" opacity="0.31" transform="rotate(60,246.6,239.9)"/><ellipse cx="379.8" cy="127.7" rx="5.2" ry="2.9" fill="#c79bff" opacity="0.44" transform="rotate(70,379.8,127.7)"/><ellipse cx="348.7" cy="459.1" rx="2.5" ry="1.4" fill="#c79bff" opacity="0.45" transform="rotate(82,348.7,459.1)"/><ellipse cx="353.8" cy="121.3" rx="5.2" ry="2.9" fill="#c79bff" opacity="0.24" transform="rotate(42,353.8,121.3)"/><ellipse cx="130.7" cy="390.2" rx="2.2" ry="1.2" fill="#c79bff" opacity="0.23" transform="rotate(8,130.7,390.2)"/><ellipse cx="208.2" cy="240.6" rx="5.4" ry="3.0" fill="#c79bff" opacity="0.38" transform="rotate(65,208.2,240.6)"/><ellipse cx="102.5" cy="12.9" rx="4.3" ry="2.4" fill="#c79bff" opacity="0.53" transform="rotate(20,102.5,12.9)"/><ellipse cx="157.2" cy="124.4" rx="5.9" ry="3.2" fill="#c79bff" opacity="0.25" transform="rotate(44,157.2,124.4)"/><ellipse cx="604.8" cy="561.7" rx="2.2" ry="1.2" fill="#c79bff" opacity="0.46" transform="rotate(36,604.8,561.7)"/><ellipse cx="714.7" cy="32.9" rx="2.4" ry="1.3" fill="#c79bff" opacity="0.31" transform="rotate(73,714.7,32.9)"/><ellipse cx="675.1" cy="108.6" rx="4.7" ry="2.6" fill="#c79bff" opacity="0.30" transform="rotate(42,675.1,108.6)"/><ellipse cx="793.5" cy="260.1" rx="2.2" ry="1.2" fill="#c79bff" opacity="0.24" transform="rotate(25,793.5,260.1)"/><ellipse cx="138.7" cy="212.2" rx="4.8" ry="2.6" fill="#c79bff" opacity="0.55" transform="rotate(15,138.7,212.2)"/><ellipse cx="688.6" cy="142.6" rx="3.6" ry="2.0" fill="#c79bff" opacity="0.27" transform="rotate(50,688.6,142.6)"/><ellipse cx="835.1" cy="46.2" rx="2.1" ry="1.2" fill="#c79bff" opacity="0.19" transform="rotate(64,835.1,46.2)"/><ellipse cx="277.7" cy="73.5" rx="2.2" ry="1.2" fill="#c79bff" opacity="0.32" transform="rotate(15,277.7,73.5)"/><ellipse cx="20.5" cy="38.3" rx="4.2" ry="2.3" fill="#c79bff" opacity="0.45" transform="rotate(58,20.5,38.3)"/><ellipse cx="548.8" cy="467.1" rx="5.8" ry="3.2" fill="#c79bff" opacity="0.23" transform="rotate(10,548.8,467.1)"/><ellipse cx="339.1" cy="86.4" rx="5.5" ry="3.0" fill="#c79bff" opacity="0.46" transform="rotate(24,339.1,86.4)"/><ellipse cx="259.8" cy="108.4" rx="2.4" ry="1.3" fill="#c79bff" opacity="0.30" transform="rotate(71,259.8,108.4)"/><ellipse cx="767.0" cy="160.1" rx="5.9" ry="3.2" fill="#c79bff" opacity="0.49" transform="rotate(31,767.0,160.1)"/><ellipse cx="791.9" cy="548.9" rx="5.1" ry="2.8" fill="#c79bff" opacity="0.51" transform="rotate(38,791.9,548.9)"/><ellipse cx="643.8" cy="223.6" rx="3.4" ry="1.9" fill="#c79bff" opacity="0.37" transform="rotate(22,643.8,223.6)"/><ellipse cx="8.1" cy="83.0" rx="3.6" ry="2.0" fill="#c79bff" opacity="0.47" transform="rotate(6,8.1,83.0)"/><ellipse cx="410.6" cy="230.4" rx="6.0" ry="3.3" fill="#c79bff" opacity="0.56" transform="rotate(37,410.6,230.4)"/><ellipse cx="216.3" cy="249.9" rx="4.8" ry="2.7" fill="#c79bff" opacity="0.39" transform="rotate(57,216.3,249.9)"/><ellipse cx="368.7" cy="194.8" rx="5.6" ry="3.1" fill="#c79bff" opacity="0.33" transform="rotate(34,368.7,194.8)"/><ellipse cx="581.1" cy="446.3" rx="2.3" ry="1.3" fill="#c79bff" opacity="0.34" transform="rotate(74,581.1,446.3)"/><ellipse cx="762.7" cy="128.0" rx="3.8" ry="2.1" fill="#c79bff" opacity="0.28" transform="rotate(73,762.7,128.0)"/><ellipse cx="311.0" cy="85.7" rx="4.4" ry="2.4" fill="#c79bff" opacity="0.51" transform="rotate(66,311.0,85.7)"/><ellipse cx="246.8" cy="230.5" rx="2.5" ry="1.4" fill="#c79bff" opacity="0.25" transform="rotate(74,246.8,230.5)"/><ellipse cx="503.6" cy="619.5" rx="3.6" ry="2.0" fill="#c79bff" opacity="0.55" transform="rotate(41,503.6,619.5)"/><ellipse cx="634.9" cy="605.3" rx="4.9" ry="2.7" fill="#c79bff" opacity="0.53" transform="rotate(88,634.9,605.3)"/><ellipse cx="555.9" cy="68.1" rx="4.5" ry="2.5" fill="#c79bff" opacity="0.22" transform="rotate(84,555.9,68.1)"/>
<rect width="880" height="620" fill="url(#vig4)"/>
<rect width="880" height="620" filter="url(#grain4)" opacity="0.05"/>
</svg>